<?xml version="1.0" standalone="no"?>
<!DOCTYPE svg PUBLIC "-//W3C//DTD SVG 20010904//EN" "http://www.w3.org/TR/2001/REC-SVG-20010904/DTD/svg10.dtd">
<svg version="1.0" xmlns="http://www.w3.org/2000/svg"
     width="512pt" height="512pt" viewBox="0 0 512 512"
     preserveAspectRatio="xMidYMid meet">
    <g transform="translate(0.000000,512.000000) scale(0.100000,-0.100000)" fill="#000000" stroke="none">
        <!-- Outer circle -->
        <path d="M2380 4740 c-494 -48 -950 -266 -1290 -615 -225 -232 -396 -520 -485
        -820 -89 -300 -89 -640 0 -940 89 -300 260 -588 485 -820 232 -225 520 -396
        820 -485 300 -89 640 -89 940 0 300 89 588 260 820 485 225 232 396 520 485
        820 89 300 89 640 0 940 -89 300 -260 588 -485 820 -232 225 -520 396 -820
        485 -155 46 -316 69 -470 70 -69 0 -144 -4 -167 -10z m385 -234 c577 -118
        1046 -587 1164 -1164 28 -135 28 -365 0 -500 -118 -577 -587 -1046 -1164
        -1164 -135 -28 -365 -28 -500 0 -577 118 -1046 587 -1164 1164 -28 135 -28
        365 0 500 118 577 587 1046 1164 1164 135 28 365 28 500 0z"/>
        <!-- M letter -->
        <path d="M1600 2560 l0 -800 160 0 160 0 0 487 0 488 240 -488 240 -487 160 0
        160 0 0 800 0 800 -160 0 -160 0 0 -487 0 -488 -240 488 -240 487 -160 0 -160
        0 0 -800z"/>
    </g>
</svg> 